# xmcd
#
# Track frame offsets:
#	182
#	14040
#	26217
#	41430
#	51907
#	62800
#	76835
#	87922
#	99122
#	120870
#	137435
#	151757
#
# Disc length: 2241
#
# Revision: 2
# Processed by: cddbd v1.5.1PL0 Copyright (c) Steve Scherf et al.
# Submitted via: EasyCDDAExtractor 5.0.7
# Normalized: r1:DSETVAR1
#
DISCID=8808bf0c
DTITLE=Various Artist - Country Celebrates America
DYEAR=1900
DGENRE=Country
TTITLE0=Aaron Tippin - You've Got To Stand For Something
TTITLE1=Merle Haggard and The Strangers - Okie From Muskogee
TTITLE2=Alabama - Forty Hour Week (For A Livin')
TTITLE3=Glen Campbell - This Land Is Your Land
TTITLE4=Charley Pride - Mississippi Cotton Picking Delta Town
TTITLE5=Eddy Arnold - Across The Wide Missouri
TTITLE6=Jerry Reed - U.S Male
TTITLE7=SSGT. Barry Sadler, U.S Army Special Forces - The Ballad Of The Green Berets
TTITLE8=Tex Ritter - The Americans (A Canadian's Opinion)
TTITLE9=Chet Atkins - Red White And Blue Medley
TTITLE10=Lee Greenwood - God Bless The Usa
TTITLE11=Waylon Jennings - America
EXTD=Country Celebrates America - Country Countdown\n
EXTT0=
EXTT1=
EXTT2=
EXTT3=
EXTT4=
EXTT5=
EXTT6=
EXTT7=
EXTT8=
EXTT9=
EXTT10=
EXTT11=
PLAYORDER=
